<?xml version="1.0" standalone="no"?>
<!DOCTYPE svg PUBLIC "-//W3C//DTD SVG 20010904//EN"
 "http://www.w3.org/TR/2001/REC-SVG-20010904/DTD/svg10.dtd">
<svg version="1.0" xmlns="http://www.w3.org/2000/svg"
 width="450.000000pt" height="450.000000pt" viewBox="0 0 450.000000 450.000000"
 preserveAspectRatio="xMidYMid meet">

<g transform="translate(0.000000,450.000000) scale(0.100000,-0.100000)"
fill="#000000" stroke="none">
<path d="M2015 4483 c-16 -2 -56 -8 -87 -13 -31 -6 -78 -11 -105 -11 -26 -1
-58 -8 -71 -16 -13 -8 -30 -12 -39 -9 -8 3 -24 1 -36 -6 -20 -11 -109 -37
-197 -58 -61 -15 -153 -50 -169 -64 -9 -8 -36 -24 -61 -35 -50 -23 -160 -85
-206 -116 -53 -36 -248 -192 -292 -233 -24 -22 -49 -42 -55 -44 -11 -3 -166
-164 -219 -228 -79 -96 -266 -416 -319 -545 -9 -22 -32 -78 -51 -125 -19 -47
-40 -112 -46 -145 -32 -172 -46 -623 -28 -895 7 -103 15 -137 81 -355 18 -60
41 -135 49 -165 9 -30 29 -78 44 -106 15 -28 49 -95 75 -149 27 -54 72 -132
99 -174 81 -120 288 -343 381 -410 31 -23 57 -46 57 -50 0 -19 150 -135 243
-189 54 -31 123 -72 155 -90 31 -19 89 -45 129 -58 40 -13 87 -33 105 -43 63
-37 405 -111 578 -126 41 -3 95 -11 120 -16 50 -12 279 8 480 41 135 22 533
160 665 231 84 45 238 145 315 205 64 50 280 257 280 268 0 5 16 26 36 45 80
81 182 202 229 272 27 41 62 90 77 110 33 44 113 249 123 316 3 26 13 57 20
69 7 11 18 45 24 75 6 30 19 97 30 149 37 174 46 554 19 764 -23 182 -90 445
-158 626 -18 47 -40 105 -49 130 -26 71 -150 279 -206 345 -98 117 -287 295
-401 378 -198 145 -234 169 -304 204 -41 20 -102 54 -134 75 -32 21 -73 42
-90 47 -17 5 -56 19 -86 31 -30 12 -71 26 -90 30 -19 5 -55 16 -80 25 -52 19
-292 34 -275 17 15 -15 121 -30 139 -20 9 5 16 5 16 0 0 -4 26 -13 58 -20 94
-19 379 -138 471 -196 22 -14 46 -26 53 -26 22 0 206 -132 330 -237 131 -111
242 -229 336 -357 31 -43 85 -115 118 -160 82 -109 164 -275 164 -332 0 -13 9
-49 21 -80 12 -31 29 -93 39 -137 10 -45 27 -120 38 -167 22 -94 53 -289 57
-360 10 -160 -1 -412 -20 -488 -8 -31 -15 -69 -15 -84 0 -33 -23 -47 -66 -41
l-31 5 12 46 c16 60 35 234 36 337 1 44 6 97 11 119 10 40 -7 172 -24 182 -4
3 -8 -34 -8 -83 -1 -146 -18 -321 -45 -453 -14 -68 -29 -128 -34 -133 -17 -17
-23 14 -13 61 39 177 47 475 19 677 -36 260 -43 288 -101 419 -14 32 -26 62
-26 67 0 16 -92 209 -151 314 -73 132 -255 346 -416 488 -78 68 -134 110 -279
208 -73 50 -167 95 -267 128 -117 39 -153 36 -41 -3 138 -49 404 -196 431
-238 4 -7 62 -57 129 -110 137 -110 279 -271 398 -449 66 -100 173 -339 158
-354 -4 -3 -2 -9 4 -13 22 -15 73 -162 88 -252 48 -298 50 -316 50 -525 1
-208 -5 -256 -40 -377 -16 -52 -27 -55 -61 -20 -13 13 -23 20 -23 16 0 -3 -6
-2 -13 5 -10 8 -17 7 -27 -2 -8 -7 -11 -8 -7 -1 9 16 -17 36 -35 29 -9 -4 -23
1 -32 10 -9 9 -16 14 -16 11 0 -4 -16 0 -35 8 -19 8 -35 12 -35 9 0 -3 -7 0
-15 7 -8 7 -12 17 -8 24 4 8 2 7 -7 -1 -15 -14 -40 -6 -40 14 0 8 -4 11 -10 8
-5 -3 -12 6 -16 20 -3 13 -10 23 -14 20 -8 -5 -60 53 -60 67 0 4 -4 7 -9 6
-12 -4 -131 115 -125 124 3 5 0 7 -8 6 -20 -4 -13 48 10 77 11 13 21 22 24 20
3 -3 10 5 17 18 7 13 28 32 47 42 20 10 40 27 45 37 15 27 -11 123 -74 282
l-32 79 -6 -44 c-5 -37 1 -63 42 -169 27 -69 49 -129 49 -134 0 -5 -54 -8
-123 -7 l-122 2 -53 -40 c-95 -71 -158 -89 -317 -93 -104 -2 -139 0 -143 10
-2 6 -9 9 -14 6 -6 -4 -16 0 -22 8 -6 8 -29 26 -51 40 -22 14 -60 44 -84 68
-33 33 -45 39 -52 29 -5 -8 -9 -17 -9 -21 0 -4 -83 -8 -186 -10 -161 -3 -184
-1 -180 12 4 13 83 219 100 261 5 12 -7 28 -41 56 -75 63 -118 105 -142 141
-12 17 -26 32 -29 32 -4 0 -27 -107 -51 -237 -24 -131 -46 -244 -49 -250 -3
-10 -58 -13 -228 -13 l-224 0 -6 29 c-6 27 -9 29 -38 24 -25 -4 -39 1 -62 20
-42 36 -39 95 9 206 20 47 36 85 34 87 -1 1 -20 4 -42 6 l-40 3 -32 -165 c-18
-91 -32 -175 -33 -187 0 -22 -3 -23 -97 -23 l-98 0 76 -38 c115 -57 187 -124
245 -230 1 -1 13 3 28 9 20 10 38 9 83 -1 119 -26 206 -78 240 -143 14 -27 16
-28 33 -12 16 14 35 15 153 9 l134 -7 7 27 c6 24 11 26 56 26 l49 0 -6 64 c-5
56 -3 66 16 85 31 31 84 28 111 -6 19 -24 21 -35 15 -85 l-7 -57 134 -3 c129
-3 133 -4 136 -25 3 -21 7 -22 67 -16 34 3 74 3 88 -1 31 -7 53 -56 38 -83
-19 -37 -41 -47 -103 -45 l-60 2 7 -58 c8 -69 10 -72 38 -72 79 0 92 -101 16
-125 -11 -4 -18 -12 -16 -18 2 -7 12 -59 22 -117 9 -58 19 -112 22 -120 9 -27
19 18 47 205 15 99 37 245 49 325 l23 145 262 3 262 2 0 -32 c0 -18 3 -49 6
-70 l6 -36 82 -4 c50 -2 93 -10 111 -20 17 -9 45 -24 63 -34 46 -23 127 -99
162 -149 42 -61 70 -153 69 -227 -1 -70 -3 -69 -19 16 -9 42 -15 55 -21 44
-10 -18 0 -88 12 -88 14 0 10 -28 -8 -63 l-17 -32 -8 90 c-8 102 -29 162 -83
233 -38 50 -129 123 -176 143 -16 6 -27 15 -24 19 3 5 -9 13 -25 19 -43 15
-37 20 12 10 51 -12 64 -19 48 -29 -8 -5 -6 -9 7 -12 34 -9 22 20 -15 38 -38
18 -158 41 -167 32 -3 -3 -3 -13 1 -22 7 -17 44 -23 44 -6 0 6 5 10 11 10 8 0
8 -5 -1 -15 -7 -8 -21 -15 -31 -15 -25 0 -24 -4 5 -285 34 -323 49 -505 42
-512 -9 -10 -97 -10 -102 -1 -3 5 -11 5 -17 1 -15 -11 -148 -10 -164 0 -7 5
-13 4 -13 -1 0 -12 38 -28 115 -47 79 -19 116 -21 200 -6 135 23 242 106 305
234 16 34 30 58 31 52 0 -5 7 4 15 20 l15 30 -6 -40 c-7 -41 -43 -120 -51
-112 -3 3 2 19 10 36 9 16 16 36 16 43 0 7 -9 -6 -20 -30 -10 -23 -17 -48 -14
-56 7 -17 -45 -78 -58 -69 -6 3 -8 1 -5 -4 8 -13 -27 -46 -38 -36 -4 5 -5 2 0
-6 5 -9 4 -12 -2 -8 -6 4 -32 -5 -57 -19 -46 -26 -62 -42 -28 -29 10 4 13 3 7
-3 -27 -25 -107 -45 -190 -48 -81 -3 -139 5 -220 31 -11 3 -4 -3 17 -14 61
-35 163 -45 260 -27 109 21 179 57 259 136 75 75 114 146 134 251 15 80 25 99
25 48 0 -51 -27 -146 -56 -198 -29 -52 -112 -145 -164 -183 -93 -69 -276 -103
-388 -74 -113 30 -162 58 -244 139 -43 43 -78 72 -78 65 0 -7 -4 -29 -10 -48
-9 -35 -10 -35 -62 -35 -29 0 -58 4 -65 8 -6 4 -14 3 -17 -1 -3 -5 -21 -8 -41
-6 -19 1 -35 0 -35 -3 0 -3 10 -18 23 -33 89 -113 113 -164 83 -176 -9 -3 -31
0 -48 7 -40 16 -248 225 -248 249 0 9 -19 52 -42 96 -23 43 -56 121 -74 172
l-31 93 -6 -77 c-4 -42 -7 -116 -8 -163 0 -47 -5 -108 -10 -136 -5 -27 -13
-133 -18 -235 -8 -189 -17 -231 -53 -254 -24 -15 -53 15 -67 69 -6 24 -11 102
-11 173 0 71 -3 149 -6 174 l-6 44 -97 -1 -96 0 3 25 c4 29 2 27 -60 -55 -94
-124 -184 -196 -224 -181 -24 9 -10 52 39 114 23 30 60 77 82 105 57 74 142
231 165 305 26 84 27 122 5 172 -15 33 -17 47 -8 70 l10 27 -61 -4 c-52 -4
-65 -2 -88 17 -34 26 -36 62 -5 91 20 19 29 20 115 14 104 -7 98 -12 105 78
l6 57 -103 0 c-71 0 -107 -4 -113 -12 -6 -7 -25 -56 -43 -109 l-32 -97 -42 24
c-51 30 -56 30 -56 0 0 -13 -9 -35 -20 -49 l-21 -26 43 -12 c89 -23 174 -89
197 -152 15 -39 13 -174 -3 -220 -34 -93 -129 -178 -202 -180 -30 -1 -40 -7
-56 -32 -23 -38 -75 -203 -84 -270 -4 -27 -13 -62 -20 -77 -28 -54 -89 -64
-131 -22 -23 23 -25 31 -20 79 3 30 24 97 46 149 23 53 41 103 41 111 0 9 8
28 17 42 17 25 17 27 1 20 -10 -3 -20 -2 -23 4 -4 5 -12 6 -18 2 -16 -10 -158
-10 -164 0 -3 4 -10 4 -16 0 -15 -11 -147 -10 -164 0 -6 4 -14 4 -16 -1 -7 -9
-148 -9 -164 1 -6 4 -14 3 -17 -2 -8 -12 -57 0 -144 34 l-69 27 52 95 c29 53
59 115 65 139 7 24 16 44 20 44 4 0 42 -16 83 -36 115 -54 289 -87 442 -82 99
2 126 7 155 23 46 27 52 64 14 94 -41 32 -87 41 -239 47 -111 5 -153 3 -200
-10 -168 -45 -346 6 -471 136 -96 99 -144 202 -144 307 0 43 -3 52 -12 43 -7
-7 -22 -12 -35 -12 -14 0 -23 -6 -23 -15 0 -10 -9 -14 -31 -11 -21 2 -38 -3
-51 -16 -15 -15 -22 -17 -34 -7 -8 7 -14 7 -14 1 0 -12 -45 -42 -70 -47 -24
-5 -35 10 -49 69 -32 132 -42 226 -40 391 2 178 -10 229 -25 110 -21 -166 -10
-390 26 -533 14 -55 8 -59 -74 -55 -68 3 -88 17 -88 60 0 13 -6 39 -14 58 -8
19 -15 69 -16 112 0 43 -4 105 -8 138 -4 33 -7 85 -6 115 0 30 2 125 3 210 2
85 2 160 1 165 -2 6 -1 17 2 25 19 51 30 99 25 107 -3 5 0 20 7 34 7 14 18 54
25 89 7 36 19 75 27 87 8 12 14 27 14 33 0 18 99 226 149 312 124 213 179 289
316 435 125 132 277 262 395 337 41 27 86 56 100 65 23 15 148 78 320 161 35
17 67 34 70 38 5 8 245 69 365 92 33 7 65 15 70 19 12 7 4 6 235 17 l185 9
-130 6 c-71 3 -141 2 -154 -3 -15 -5 -28 -5 -35 2 -5 5 -12 9 -15 9 -4 -1 -19
-4 -36 -6z"/>
<path d="M1999 4335 c-166 -28 -476 -123 -628 -192 -101 -46 -251 -132 -251
-144 0 -5 42 13 93 40 204 110 489 210 772 271 55 12 104 26 110 31 11 11 3
10 -96 -6z"/>
<path d="M2148 4343 c6 -2 18 -2 25 0 6 3 1 5 -13 5 -14 0 -19 -2 -12 -5z"/>
<path d="M2243 4343 c9 -2 23 -2 30 0 6 3 -1 5 -18 5 -16 0 -22 -2 -12 -5z"/>
<path d="M2480 4330 c60 -13 120 -18 120 -10 0 11 -54 20 -109 19 -46 -1 -46
-1 -11 -9z"/>
<path d="M2643 4314 c3 -3 57 -17 119 -29 62 -13 160 -40 217 -59 58 -20 107
-34 109 -31 6 5 -16 15 -138 59 -105 38 -329 82 -307 60z"/>
<path d="M2130 4255 c-122 -14 -152 -21 -350 -80 -69 -21 -161 -48 -206 -60
-130 -36 -484 -231 -484 -266 0 -6 3 -8 8 -6 4 2 52 31 107 64 242 145 320
178 625 259 290 78 279 76 490 77 107 1 218 -2 245 -7 35 -5 47 -4 40 3 -29
30 -272 38 -475 16z"/>
<path d="M2685 4220 c11 -5 27 -9 35 -9 9 0 8 4 -5 9 -11 5 -27 9 -35 9 -9 0
-8 -4 5 -9z"/>
<path d="M3140 4171 c0 -5 11 -12 24 -15 14 -3 45 -22 70 -40 24 -19 62 -43
83 -54 21 -10 67 -35 101 -57 94 -58 84 -36 -14 30 -118 81 -264 155 -264 136z"/>
<path d="M973 3908 c-107 -78 -198 -155 -253 -215 -62 -68 -179 -223 -234
-311 -16 -26 -43 -69 -61 -97 -17 -27 -59 -111 -94 -185 -34 -74 -66 -143 -72
-153 -13 -24 -53 -154 -79 -257 -28 -110 -49 -305 -50 -452 0 -98 2 -118 15
-118 18 0 16 -10 21 125 4 131 8 176 28 275 8 41 17 104 21 140 7 63 47 224
64 258 5 9 21 46 37 82 15 36 42 88 60 116 18 29 49 83 69 120 49 92 176 283
240 364 61 76 229 238 298 288 26 19 47 36 47 38 0 11 -29 2 -57 -18z"/>
<path d="M3540 3921 c0 -5 21 -25 48 -45 26 -19 73 -59 105 -87 31 -29 60 -50
62 -47 7 7 -191 188 -205 188 -6 0 -10 -4 -10 -9z"/>
<path d="M1014 3805 c-58 -37 -73 -55 -49 -55 18 0 114 69 115 83 0 13 -14 7
-66 -28z"/>
<path d="M862 3691 c-111 -92 -217 -229 -320 -411 -86 -151 -95 -171 -84 -182
5 -5 39 46 88 137 63 118 93 161 149 218 83 85 223 245 236 270 17 30 -7 19
-69 -32z"/>
<path d="M3780 3719 c0 -9 9 -24 20 -34 26 -23 26 -4 0 26 -15 18 -19 20 -20
8z"/>
<path d="M3840 3648 c0 -8 9 -23 20 -33 16 -15 20 -15 20 -3 0 8 -9 23 -20 33
-16 15 -20 15 -20 3z"/>
<path d="M3890 3581 c0 -6 5 -13 10 -16 6 -3 10 1 10 9 0 9 -4 16 -10 16 -5 0
-10 -4 -10 -9z"/>
<path d="M3960 3481 c0 -6 5 -13 10 -16 6 -3 10 1 10 9 0 9 -4 16 -10 16 -5 0
-10 -4 -10 -9z"/>
<path d="M1528 3453 c28 -2 76 -2 105 0 28 2 5 3 -53 3 -58 0 -81 -1 -52 -3z"/>
<path d="M2943 3453 c37 -2 97 -2 135 0 37 2 6 3 -68 3 -74 0 -105 -1 -67 -3z"/>
<path d="M3990 3431 c0 -5 7 -14 15 -21 16 -14 18 -10 9 14 -6 17 -24 22 -24
7z"/>
<path d="M1936 3354 c-31 -97 -83 -96 -121 2 -9 25 -19 43 -22 41 -4 -4 19
-156 33 -217 5 -24 6 -24 16 -5 26 50 64 98 84 105 17 7 22 20 28 66 3 31 5
58 3 60 -2 2 -11 -21 -21 -52z"/>
<path d="M1339 3340 c-21 -44 -33 -58 -52 -62 -23 -4 -29 1 -45 34 -17 33 -20
36 -25 17 -10 -36 13 -212 33 -254 20 -43 48 -81 53 -74 6 7 69 390 66 393 -2
2 -16 -22 -30 -54z"/>
<path d="M4020 3386 c0 -3 24 -53 53 -113 65 -131 91 -197 112 -283 42 -169
94 -283 74 -163 -22 141 -121 407 -191 515 -25 40 -48 61 -48 44z"/>
<path d="M2700 3358 c0 -3 -25 -59 -56 -124 -44 -95 -50 -114 -30 -94 24 25
101 208 91 218 -3 3 -5 3 -5 0z"/>
<path d="M3331 3359 c-2 -13 72 -185 85 -199 13 -13 14 -12 6 10 -15 39 -90
196 -91 189z"/>
<path d="M2310 3309 c0 -2 -11 -54 -24 -116 -22 -104 -22 -114 -8 -135 16 -22
17 -17 29 112 6 74 10 136 7 139 -2 2 -4 2 -4 0z"/>
<path d="M851 3280 c-1 -8 10 -94 23 -190 21 -153 30 -238 52 -480 12 -137 40
-250 62 -250 4 0 16 6 25 13 15 11 14 21 -7 137 -13 69 -47 247 -75 395 -55
291 -78 399 -80 375z"/>
<path d="M2996 3162 c-5 -9 -126 -332 -126 -338 0 -2 65 -4 145 -4 80 0 145 3
145 7 0 3 -28 82 -62 175 -48 126 -67 168 -80 168 -9 0 -19 -3 -22 -8z"/>
<path d="M1890 3026 c-23 -53 -28 -74 -22 -102 6 -31 9 -33 24 -22 11 9 20 39
27 98 5 47 8 87 5 89 -2 2 -17 -26 -34 -63z"/>
<path d="M3455 3050 c10 -11 20 -20 22 -20 2 0 -2 9 -9 20 -7 11 -17 20 -22
20 -5 0 -1 -9 9 -20z"/>
<path d="M1257 3009 c10 -17 24 -36 32 -42 8 -7 2 7 -14 31 -32 49 -45 57 -18
11z"/>
<path d="M391 2973 c-28 -53 -93 -279 -103 -356 -9 -78 -7 -110 6 -96 3 2 16
63 31 134 15 72 40 168 57 215 41 116 42 120 30 120 -6 0 -16 -8 -21 -17z"/>
<path d="M3495 2924 c26 -69 35 -86 35 -66 0 19 -41 121 -51 128 -5 3 2 -25
16 -62z"/>
<path d="M1250 2972 c0 -5 10 -17 21 -28 22 -19 22 -19 10 3 -12 24 -31 39
-31 25z"/>
<path d="M2534 2972 c-12 -2 -30 -20 -44 -45 -13 -23 -30 -48 -38 -56 -11 -12
-9 -18 14 -42 15 -16 31 -26 35 -22 11 13 61 152 57 160 -1 5 -12 7 -24 5z"/>
<path d="M1565 2904 c-3 -25 -9 -52 -11 -59 -3 -7 6 -15 21 -18 l27 -5 -7 57
c-9 74 -21 84 -30 25z"/>
<path d="M1253 2900 c4 -14 7 -40 7 -58 0 -43 17 -33 22 13 3 26 -1 40 -16 53
-18 16 -19 16 -13 -8z"/>
<path d="M1887 2873 c-10 -9 -9 -23 1 -23 5 0 9 7 9 15 0 17 -1 18 -10 8z"/>
<path d="M3560 2818 c0 -16 5 -28 10 -28 13 0 13 20 0 40 -8 12 -10 9 -10 -12z"/>
<path d="M1891 2804 c0 -11 3 -14 6 -6 3 7 2 16 -1 19 -3 4 -6 -2 -5 -13z"/>
<path d="M1540 2786 c0 -2 16 -6 35 -8 19 -2 35 0 35 4 0 4 -16 8 -35 8 -19 0
-35 -2 -35 -4z"/>
<path d="M3582 2720 c0 -19 2 -27 5 -17 2 9 2 25 0 35 -3 9 -5 1 -5 -18z"/>
<path d="M4250 2740 c0 -5 5 -10 10 -10 6 0 10 5 10 10 0 6 -4 10 -10 10 -5 0
-10 -4 -10 -10z"/>
<path d="M2815 2574 c11 -9 49 -34 85 -57 44 -29 66 -50 70 -67 5 -23 9 -25
65 -25 62 0 65 -2 126 -57 16 -16 38 -28 48 -28 31 0 111 31 111 43 -1 7 -16
55 -34 107 l-33 95 -229 2 c-209 2 -227 1 -209 -13z"/>
<path d="M276 2493 c-3 -3 -6 -17 -6 -31 0 -21 2 -22 15 -12 8 7 15 18 15 26
0 15 -15 26 -24 17z"/>
<path d="M2760 2435 c13 -14 26 -25 28 -25 3 0 -5 11 -18 25 -13 14 -26 25
-28 25 -3 0 5 -11 18 -25z"/>
<path d="M2860 2416 c0 -3 11 -13 24 -22 17 -11 30 -13 42 -6 14 8 13 10 -9
16 -14 3 -32 9 -41 12 -9 3 -16 4 -16 0z"/>
<path d="M1087 2360 c-73 -13 -71 -22 3 -16 46 3 55 2 30 -3 -31 -8 -28 -9 30
-11 38 -2 51 -5 30 -7 -53 -5 -160 -34 -160 -44 0 -4 5 -11 10 -14 32 -20 -16
-113 -65 -128 -11 -4 -31 -17 -45 -30 -14 -12 -43 -33 -64 -47 -22 -13 -52
-37 -67 -52 -15 -16 -36 -30 -46 -31 -22 -1 -29 -39 -26 -144 2 -89 56 -186
157 -281 62 -59 94 -70 48 -17 -37 41 -46 83 -40 174 9 123 71 205 203 267 91
44 181 63 333 71 67 3 122 9 122 13 0 3 -13 26 -28 51 -41 63 -129 142 -184
165 -27 10 -48 22 -48 25 0 15 33 18 46 4 17 -17 28 -20 19 -5 -8 13 1 13 28
-1 21 -10 21 -10 3 5 -56 45 -197 72 -289 56z m120 -16 c-3 -3 -12 -4 -19 -1
-8 3 -5 6 6 6 11 1 17 -2 13 -5z m78 -14 c25 -11 -1 -11 -35 0 -20 6 -21 8 -5
8 11 0 29 -3 40 -8z"/>
<path d="M3356 2359 c2 -4 -2 -10 -8 -12 -7 -3 -8 -6 -2 -6 5 -1 19 5 30 13
19 14 18 15 -3 13 -12 0 -20 -4 -17 -8z"/>
<path d="M1414 2271 c7 -10 3 -12 -15 -6 -20 5 -18 3 7 -13 44 -28 103 -99
130 -157 13 -27 24 -43 24 -35 -1 8 -7 26 -15 40 -19 34 -19 45 2 29 11 -9 9
-3 -6 19 -12 18 -26 30 -30 28 -4 -3 -25 13 -46 34 -42 43 -38 55 4 18 15 -14
20 -16 12 -5 -18 22 -78 66 -67 48z"/>
<path d="M140 2100 c0 -5 5 -10 10 -10 6 0 10 5 10 10 0 6 -4 10 -10 10 -5 0
-10 -4 -10 -10z"/>
<path d="M1560 2105 c0 -5 5 -17 10 -25 5 -8 10 -10 10 -5 0 6 -5 17 -10 25
-5 8 -10 11 -10 5z"/>
<path d="M1610 2050 c0 -6 7 -10 15 -10 8 0 15 2 15 4 0 2 -7 6 -15 10 -8 3
-15 1 -15 -4z"/>
<path d="M150 1956 c0 -38 12 -86 21 -86 10 0 12 70 3 94 -9 24 -24 19 -24 -8z"/>
<path d="M170 1835 c0 -8 5 -15 10 -15 6 0 10 7 10 15 0 8 -4 15 -10 15 -5 0
-10 -7 -10 -15z"/>
<path d="M676 1841 c-4 -7 -5 -15 -2 -18 9 -9 19 4 14 18 -4 11 -6 11 -12 0z"/>
<path d="M683 1803 c-14 -5 -7 -26 24 -72 28 -41 28 -39 5 25 -10 29 -23 49
-29 47z"/>
<path d="M3794 1791 c4 -5 0 -12 -6 -15 -7 -2 -2 -4 12 -3 16 1 24 -3 22 -11
-1 -8 2 -11 8 -7 8 5 6 13 -6 26 -17 19 -40 27 -30 10z"/>
<path d="M1320 1761 c-77 -16 -108 -55 -73 -93 25 -28 55 -38 147 -48 68 -8
83 -7 98 7 10 9 18 13 18 8 0 -4 7 -1 16 6 15 12 16 11 9 -10 -12 -38 10 -16
34 34 27 57 27 72 0 22 -11 -22 -23 -37 -26 -34 -2 3 0 14 6 25 6 12 11 24 11
29 -1 4 -10 -9 -21 -30 -11 -22 -23 -37 -25 -34 -3 2 5 23 16 45 17 32 19 45
10 61 -10 19 -19 21 -98 20 -48 -1 -103 -4 -122 -8z"/>
<path d="M3850 1756 c0 -2 8 -10 18 -17 15 -13 16 -12 3 4 -13 16 -21 21 -21
13z"/>
<path d="M3884 1690 c27 -30 51 -57 53 -60 2 -2 1 4 -2 15 -6 16 -3 15 15 -5
20 -24 21 -24 10 -2 -6 13 -22 27 -36 32 -16 6 -24 16 -22 27 2 11 -2 17 -11
15 -7 -2 -23 5 -35 15 -11 10 1 -7 28 -37z"/>
<path d="M1593 1662 c-12 -26 -21 -47 -20 -48 1 -1 37 -4 80 -8 74 -6 77 -5
67 13 -8 17 -66 67 -95 84 -6 3 -20 -15 -32 -41z"/>
<path d="M3237 1675 c-20 -59 -88 -432 -82 -454 7 -29 95 -150 109 -151 5 0 5
102 1 233 -8 276 -18 400 -28 372z"/>
<path d="M761 1595 c46 -65 102 -110 179 -148 58 -28 76 -31 165 -33 l100 -2
-90 7 c-138 12 -211 46 -309 144 -67 68 -74 72 -45 32z"/>
<path d="M780 1616 c27 -38 85 -97 105 -108 11 -5 3 5 -17 24 -21 18 -52 49
-70 69 -18 19 -26 26 -18 15z"/>
<path d="M2557 1593 c-4 -3 -7 -22 -7 -42 l1 -36 19 39 c11 22 20 41 20 43 0
6 -27 3 -33 -4z"/>
<path d="M3950 1595 c0 -5 5 -17 10 -25 5 -8 10 -10 10 -5 0 6 -5 17 -10 25
-5 8 -10 11 -10 5z"/>
<path d="M3144 1160 c1 -21 11 -49 21 -62 44 -53 100 -108 109 -108 6 0 -11
22 -37 48 -57 58 -63 82 -7 27 22 -21 40 -35 40 -29 0 6 -16 26 -36 45 -20 18
-47 53 -61 77 -14 23 -26 42 -28 42 -2 0 -2 -18 -1 -40z m45 -55 c0 -5 -9 1
-19 14 -11 13 -20 28 -20 35 0 6 9 0 20 -14 11 -14 20 -29 19 -35z"/>
</g>
</svg>
